<svg xmlns="http://www.w3.org/2000/svg" width="288" height="349"><path fill-rule="evenodd" d="M147.475.566c14.998.019 33.833.954 50.414 2.399 13.017 1.171 32.7 3.345 33.853 3.812.385.072.663.175 1.033.525.59.016 2.139-.275 4.805.327 6.634 1.497 34.097 7.782 44.204 41.396 6.057 21.497 5.237 66.163 5.442 98.956-.143 65.97-.483 102.383-.943 116.995-1.523 21.323-4.415 45.209-22.714 61.038-8.494 7.8-21.82 12.328-36.232 15.825-8.614 4.273-60.044 5.769-83.806 5.769-25.218 0-75.265-1.665-83.688-6.019-25.827-5.51-40.352-15.365-49.246-33.046-5.65-11.726-8.558-27.185-9.281-48.482-.405-11.949-.714-42.67-.871-62.401 0-11.067.23-22.134.23-33.201-.073-13.147-.011-71.879.916-84.328C3.044 63.332 3.505 45.34 16.09 27.957c7.615-10.364 19.936-16.507 31.528-19.82 2.596-.58 4.654-.991 7.404-1.004.178-.278.482-.196.831-.404 1.994-.24 18.464-2.692 40.936-4.392C111.224 1.145 128.631.566 147.475.566z"/></svg>