<svg xmlns="http://www.w3.org/2000/svg" width="465" height="563"><path fill-rule="evenodd" d="M238.111.914c24.215.031 54.625 1.158 81.398 3.494 21.016 1.892 52.796 5.595 54.658 6.348.621.117 1.069.283 1.667.85.953.024 3.454-.444 7.759.528 10.71 2.418 55.052 12.762 71.371 67.066 9.779 34.728 8.455 106.886 8.787 159.863-.231 106.574-.78 165.399-1.523 189.005-2.458 34.446-7.129 73.034-36.674 98.605-13.714 12.602-35.23 20.108-58.499 25.757-13.909 6.903-96.947 9.512-135.312 9.512-40.716 0-121.522-2.882-135.122-9.915-41.7-8.903-65.342-25.013-79.702-53.577-9.123-18.944-14.01-43.917-15.176-78.322-.655-19.305-.771-68.934-1.024-100.81 0-17.879-.011-35.757-.011-53.635C.59 244.444.69 149.563 2.187 129.451c2.345-27.139 3.472-56.205 23.791-84.287 12.296-16.743 32.188-26.857 50.906-32.21 4.191-.937 7.513-1.409 11.954-1.43.287-.45.777-.508 1.342-.844 3.218-.388 29.811-4.349 66.094-7.096 23.307-1.925 51.411-2.67 81.837-2.67z"/></svg>