<?xml version="1.0" encoding="UTF-8"?>
<svg xmlns="http://www.w3.org/2000/svg" viewBox="0 0 32 32">
    <path id="discord" d="M24.28555,7.51068c-1.52389-.69923-3.15803-1.21439-4.86663-1.50944-.03112-.00569-.0622,.00854-.07823,.037-.21017,.3738-.44296,.86144-.60598,1.24473-1.83771-.27512-3.66599-.27512-5.46601,0-.16305-.39181-.4043-.87093-.61541-1.24473-.01603-.02751-.04711-.04174-.07823-.037-1.70766,.29411-3.3418,.80927-4.86663,1.50944-.0132,.00569-.02452,.01519-.03202,.02751-3.09963,4.63077-3.94874,9.14773-3.53219,13.60868,.00188,.02182,.01414,.0427,.0311,.05597,2.04504,1.50183,4.02602,2.41358,5.97021,3.01791,.03112,.0095,.06408-.00189,.08388-.02751,.4599-.62804,.86986-1.29026,1.22136-1.98665,.02074-.04078,.00094-.08917-.04145-.1053-.65026-.24667-1.26944-.54742-1.86505-.88895-.04711-.02751-.05088-.0949-.00754-.12716,.12534-.09392,.25071-.19164,.37039-.29031,.02165-.01802,.05183-.02182,.07728-.01044,3.91289,1.78649,8.14906,1.78649,12.01579,0,.02546-.01233,.05563-.00852,.07823,.0095,.11971,.09867,.24505,.19733,.37133,.29125,.04334,.03226,.04051,.09964-.0066,.12716-.59561,.34817-1.21479,.64228-1.866,.88801-.0424,.01613-.06125,.06546-.04051,.10624,.35904,.69542,.769,1.35764,1.22041,1.98571,.01886,.02657,.05277,.03795,.08388,.02846,1.95362-.60433,3.93458-1.51608,5.97962-3.01791,.01791-.01327,.02923-.0332,.03112-.05502,.49852-5.15735-.835-9.63726-3.53502-13.60868-.0066-.01327-.01788-.02276-.03108-.02846Zm-12.25047,10.91994c-1.17805,0-2.14873-1.08154-2.14873-2.40978s.95186-2.40978,2.14873-2.40978c1.20627,0,2.16755,1.09103,2.1487,2.40978,0,1.32824-.95186,2.40978-2.1487,2.40978Zm7.94455,0c-1.17802,0-2.1487-1.08154-2.1487-2.40978s.95182-2.40978,2.1487-2.40978c1.2063,0,2.16755,1.09103,2.14873,2.40978,0,1.32824-.94243,2.40978-2.14873,2.40978Z" fill="#262626"/>
</svg>