<svg xmlns="http://www.w3.org/2000/svg" width="654" height="798"><path fill-rule="evenodd" d="M335.403.726c34.109.043 77.592 1.491 115.304 4.78 29.603 2.666 71.494 7.448 74.116 8.509.875.164 1.53 1.286 2.372 2.083 9.545.11 14.88 1.679 17.302 2.471 49.587 16.316 79.757 42.648 96.046 94.556 16.015 50.904 12.49 150.982 12.957 225.601-.325 150.112-.042 232.97-1.088 266.218-3.463 48.519-7.822 101.625-51.366 140.893-22.618 20.942-49.832 29.026-82.608 36.983-17.323 9.042-117.133 13.519-183.938 13.519-73.378 0-179.727-4.171-197.627-13.41-59.338-13.794-92.373-34.124-113.775-78.503-12.85-26.684-18.775-62.205-20.418-110.665-.922-27.191-1.35-97.058-1.706-141.956 0-25.182.219-50.372.219-75.555-.167-29.915.247-163.508 2.355-191.837 3.303-38.226 5.544-78.48 34.166-118.035 17.321-23.583 47.988-40.618 74.353-48.157 6.573-1.516 9.401-2.085 16.195-2.209.404-.633 1.47-1.473 2.265-1.947 4.262-.826 38.099-5.801 89.208-9.67 32.83-2.711 72.81-3.669 115.668-3.669z"/></svg>