<svg xmlns="http://www.w3.org/2000/svg" width="462" height="564"><path fill-rule="evenodd" d="M236.936.513c24.096.031 54.813 1.054 81.453 3.379 20.912 1.883 50.505 5.263 52.358 6.014.617.116 1.08.908 1.675 1.472 6.743.078 10.512 1.186 12.223 1.746 35.029 11.531 56.342 30.142 67.849 66.829 11.313 35.977 8.823 106.709 9.153 159.447-.23 106.095-.03 164.656-.769 188.155-2.446 34.291-5.526 71.824-36.286 99.578-15.978 14.801-35.202 20.515-58.356 26.138-12.237 6.391-82.745 9.555-129.938 9.555-51.836 0-126.963-2.948-139.608-9.478-41.918-9.749-65.254-24.118-80.373-55.483C7.239 479.006 3.054 453.9 1.893 419.65 1.242 400.433.94 351.053.688 319.321c0-17.798.155-35.602.155-53.4-.118-21.143.174-115.562 1.663-135.584C4.84 103.32 6.423 74.87 26.642 46.914c12.236-16.668 33.9-28.707 52.525-34.036 4.643-1.071 6.64-1.474 11.44-1.561.285-.448 1.039-1.041 1.6-1.376 3.011-.584 26.914-4.1 63.019-6.835C178.417 1.19 206.66.513 236.936.513z"/></svg>