<svg xmlns="http://www.w3.org/2000/svg" width="288" height="352"><path fill-rule="evenodd" d="M147.7.32c15.021.019 34.169.657 50.776 2.105 13.036 1.174 31.484 3.281 32.639 3.748.385.073.673.567 1.044.918 4.204.048 6.553.739 7.619 1.088 21.837 7.187 35.123 18.786 42.296 41.65 7.053 22.422 5.5 66.504 5.706 99.372-.143 66.12-.018 102.617-.479 117.263-1.525 21.371-3.445 44.763-22.62 62.059-9.96 9.225-21.944 12.786-36.378 16.29-7.628 3.983-51.581 5.955-81 5.955-32.314 0-79.146-1.837-87.029-5.906-26.13-6.076-40.678-15.031-50.102-34.579-5.659-11.754-8.268-27.4-8.992-48.746-.406-11.976-.594-42.751-.751-62.528 0-11.092.096-22.187.096-33.28-.073-13.177.109-72.021 1.037-84.5 1.455-16.837 2.442-34.568 15.046-51.991C24.235 18.85 37.74 11.347 49.351 8.026c2.894-.668 4.139-.918 7.131-.973.178-.279.648-.649.998-.858 1.877-.363 16.777-2.555 39.284-4.259C111.221.742 128.827.32 147.7.32z"/></svg>