<svg xmlns="http://www.w3.org/2000/svg" width="655" height="793"><path fill-rule="evenodd" d="M335.403 1.287c34.11.043 76.946 1.632 114.658 4.921 29.603 2.665 74.369 7.881 76.992 8.943.874.164 1.506.398 2.348 1.196 1.342.035 4.864-.626 10.929.744 15.087 3.405 77.547 17.976 100.534 94.465 13.773 48.914 11.91 150.551 12.376 225.17-.325 150.112-1.098 232.97-2.144 266.218-3.464 48.519-10.043 102.872-51.66 138.889-19.318 17.749-49.625 28.322-82.402 36.279-19.592 9.723-136.559 13.398-190.6 13.398-57.353 0-171.177-4.06-190.333-13.966-58.739-12.539-92.041-35.232-112.269-75.464-12.85-26.684-19.734-61.859-21.377-110.319-.922-27.191-1.086-97.096-1.443-141.993 0-25.183-.015-50.364-.015-75.547C.83 344.306.972 210.664 3.08 182.334c3.303-38.225 4.891-79.165 33.513-118.719 17.32-23.583 45.34-37.829 71.706-45.369 5.904-1.319 10.583-1.984 16.839-2.015.403-.633 1.094-.715 1.889-1.188 4.534-.547 41.992-6.126 93.102-9.995 32.829-2.711 72.416-3.761 115.274-3.761z"/></svg>