<?xml version="1.0" encoding="UTF-8"?>
<svg version="1.1" xmlns="http://www.w3.org/2000/svg" width="1080" height="1080">
<path d="M0 0 C3.5432188 0.01942991 7.08638794 0.02318405 10.62965298 0.02671432 C14.91165401 0.03186099 19.19360956 0.04631247 23.47558594 0.06115723 C24.26993986 0.06303795 25.06429379 0.06491867 25.88271904 0.06685638 C28.13045323 0.07377192 30.37804473 0.08741078 32.62573242 0.10314941 C34.52777687 0.11339142 34.52777687 0.11339142 36.46824646 0.12384033 C40.43363527 0.2744067 44.23570014 0.73463254 48.16699219 1.26428223 C50.30485338 1.39819204 52.44447836 1.50654593 54.58496094 1.58850098 C150.38084417 5.92661702 252.96040482 29.527655 343.16699219 99.26428223 C344.15699219 100.06994629 345.14699219 100.87561035 346.16699219 101.70568848 C354.01051661 108.16055041 361.28249563 115.16636545 368.47949219 122.32678223 C369.39835205 123.23645752 370.31721191 124.14613281 371.26391602 125.08337402 C377.32525854 131.17208153 382.80849694 137.55529829 388.16699219 144.26428223 C389.25070544 145.55870461 390.33873459 146.84953595 391.43261719 148.13537598 C403.87355033 162.92072659 414.13591117 179.20316613 423.16699219 196.26428223 C423.67456055 197.22165283 423.67456055 197.22165283 424.19238281 198.19836426 C461.12729015 268.51946173 464.28406982 349.73982734 441.45605469 425.17834473 C431.12283965 457.913753 415.83812867 488.83451413 395.16699219 516.26428223 C394.72887207 516.84661621 394.29075195 517.4289502 393.83935547 518.02893066 C388.13988607 525.55296913 382.13840626 532.68017743 375.67871094 539.56115723 C372.91338117 542.53721975 370.28679342 545.60754109 367.70214844 548.74084473 C366.16699219 550.26428223 366.16699219 550.26428223 364.10058594 551.22521973 C361.64454856 552.54502971 361.35459664 553.78441853 360.16699219 556.26428223 C357.03121696 559.47638464 353.56543221 562.33397169 350.16699219 565.26428223 C349.2040625 566.11377441 348.24113281 566.9632666 347.24902344 567.83850098 C317.12250535 594.15976851 280.82028286 614.73443008 243.41699219 628.63928223 C241.93211304 629.19132324 241.93211304 629.19132324 240.41723633 629.7545166 C222.89436854 636.05550455 204.95052912 640.98223928 186.8894043 645.46255493 C125.64926478 660.6927387 65.01602448 679.72307693 17.47949219 723.17443848 C15.51713705 724.94785064 13.5203781 726.64578468 11.47949219 728.32678223 C7.61731158 731.62572816 4.44221804 735.39468647 1.16699219 739.26428223 C0.26094841 740.29815807 -0.64672843 741.33060409 -1.55566406 742.36193848 C-17.63526524 760.69490024 -30.0870847 780.81790552 -41.70703125 802.20031738 C-42.71885091 804.05502758 -43.74753468 805.90051403 -44.77832031 807.74475098 C-51.10755034 819.2512382 -56.47902416 831.21820735 -61.94677734 843.1505127 C-63.93266992 847.48423417 -65.92766018 851.8137422 -67.92285156 856.14318848 C-74.27156092 869.92687642 -80.59541873 883.72133156 -86.8581543 897.54431152 C-105.01791803 937.62610152 -124.01936709 977.81579199 -151.83300781 1012.26428223 C-152.24309082 1012.7773291 -152.65317383 1013.29037598 -153.07568359 1013.81896973 C-178.44370933 1045.40378226 -209.48768538 1067.01031385 -248.83300781 1077.26428223 C-249.58404785 1077.46070313 -250.33508789 1077.65712402 -251.10888672 1077.85949707 C-273.505321 1083.33418101 -302.52126504 1082.85729342 -324.83300781 1077.26428223 C-325.65929687 1077.06560547 -326.48558594 1076.86692871 -327.33691406 1076.66223145 C-367.27396298 1066.84706939 -401.75862413 1042.67648722 -426.83300781 1010.26428223 C-427.28643555 1009.68726563 -427.73986328 1009.11024902 -428.20703125 1008.51574707 C-435.74412035 998.90180476 -442.4109585 988.95123565 -448.57763672 978.40783691 C-449.72566023 976.44757896 -450.89263665 974.50001709 -452.06347656 972.55334473 C-496.95215062 896.67180918 -513.31447179 801.29579762 -527.63769531 659.8237915 C-527.81622185 657.48425708 -527.99815758 655.14501261 -528.18066406 652.80578613 C-534.43385021 571.53241641 -535.01705766 485.98723992 -435.83300781 178.26428223 C-435.18984619 177.39150635 -435.18984619 177.39150635 -434.53369141 176.50109863 C-428.48865928 168.35693322 -422.00654011 160.61358908 -415.33056641 152.98278809 C-414.31566346 151.81814807 -413.30837578 150.64683584 -412.30810547 149.46960449 C-407.48530988 143.84108954 -402.32165899 138.56677599 -397.08251953 133.32849121 C-395.59407544 131.83786607 -394.11383505 130.33941206 -392.63378906 128.8404541 C-387.12263018 123.29747415 -381.47036353 118.14027145 -375.33886719 113.27209473 C-372.68997741 111.14967954 -370.13679687 108.93728452 -367.58300781 106.70178223 C-330.16873732 75.57156233 -284.76370202 54.46373486 -239.15673828 38.43371582 C-236.33570394 37.44115269 -233.52311175 36.42874529 -230.71191406 35.40881348 C-203.2826486 25.66603843 -174.378232 18.78735908 -145.83300781 13.26428223 C-144.22449951 12.94451416 -144.22449951 12.94451416 -142.58349609 12.61828613 C-127.96866112 9.733636 -113.28999313 7.54166767 -98.52050781 5.63928223 C-97.77740356 5.54082001 -97.03429932 5.44235779 -96.26867676 5.34091187 C-64.25971532 1.14049879 -32.2530589 -0.21229166 0 0 Z " fill="#D8D9DA" transform="translate(577.8330078125,-0.2642822265625)"/>
</svg>
